<mxfile host="Electron" modified="2023-04-28T08:02:55.335Z" agent="Mozilla/5.0 (Windows NT 10.0; Win64; x64) AppleWebKit/537.36 (KHTML, like Gecko) draw.io/21.1.2 Chrome/106.0.5249.199 Electron/21.4.3 Safari/537.36" etag="MjgMTTMLLamVHmj16_dM" version="21.1.2" type="device" pages="3">
  <diagram id="C5RBs43oDa-KdzZeNtuy" name="Automations">
    <mxGraphModel dx="692" dy="738" grid="1" gridSize="10" guides="1" tooltips="1" connect="1" arrows="1" fold="1" page="1" pageScale="1" pageWidth="827" pageHeight="1169" math="0" shadow="0">
      <root>
        <mxCell id="WIyWlLk6GJQsqaUBKTNV-0" />
        <mxCell id="WIyWlLk6GJQsqaUBKTNV-1" parent="WIyWlLk6GJQsqaUBKTNV-0" />
        <mxCell id="sSz4Z6vmgi8B4q0rHPUY-9" style="edgeStyle=orthogonalEdgeStyle;rounded=0;orthogonalLoop=1;jettySize=auto;html=1;entryX=0.5;entryY=0;entryDx=0;entryDy=0;entryPerimeter=0;strokeWidth=2;" edge="1" parent="WIyWlLk6GJQsqaUBKTNV-1" source="sSz4Z6vmgi8B4q0rHPUY-0" target="sSz4Z6vmgi8B4q0rHPUY-5">
          <mxGeometry relative="1" as="geometry" />
        </mxCell>
        <mxCell id="sSz4Z6vmgi8B4q0rHPUY-0" value="Opens AA&lt;br&gt;" style="strokeWidth=2;html=1;shape=mxgraph.flowchart.start_1;whiteSpace=wrap;shadow=1;" vertex="1" parent="WIyWlLk6GJQsqaUBKTNV-1">
          <mxGeometry x="200" y="40" width="100" height="60" as="geometry" />
        </mxCell>
        <mxCell id="sSz4Z6vmgi8B4q0rHPUY-11" value="YES" style="edgeStyle=orthogonalEdgeStyle;rounded=0;orthogonalLoop=1;jettySize=auto;html=1;strokeWidth=2;fontStyle=1" edge="1" parent="WIyWlLk6GJQsqaUBKTNV-1" source="sSz4Z6vmgi8B4q0rHPUY-5" target="sSz4Z6vmgi8B4q0rHPUY-6">
          <mxGeometry x="-0.6" relative="1" as="geometry">
            <mxPoint as="offset" />
          </mxGeometry>
        </mxCell>
        <mxCell id="sSz4Z6vmgi8B4q0rHPUY-36" style="edgeStyle=orthogonalEdgeStyle;rounded=0;orthogonalLoop=1;jettySize=auto;html=1;strokeWidth=2;" edge="1" parent="WIyWlLk6GJQsqaUBKTNV-1" source="sSz4Z6vmgi8B4q0rHPUY-5" target="sSz4Z6vmgi8B4q0rHPUY-35">
          <mxGeometry relative="1" as="geometry" />
        </mxCell>
        <mxCell id="sSz4Z6vmgi8B4q0rHPUY-37" value="NO" style="edgeLabel;html=1;align=center;verticalAlign=middle;resizable=0;points=[];fontStyle=1" vertex="1" connectable="0" parent="sSz4Z6vmgi8B4q0rHPUY-36">
          <mxGeometry x="-0.2985" y="1" relative="1" as="geometry">
            <mxPoint x="-5" y="1" as="offset" />
          </mxGeometry>
        </mxCell>
        <mxCell id="sSz4Z6vmgi8B4q0rHPUY-5" value="Automation generated?" style="strokeWidth=2;html=1;shape=mxgraph.flowchart.decision;whiteSpace=wrap;shadow=1;" vertex="1" parent="WIyWlLk6GJQsqaUBKTNV-1">
          <mxGeometry x="200" y="160" width="100" height="100" as="geometry" />
        </mxCell>
        <mxCell id="sSz4Z6vmgi8B4q0rHPUY-12" style="edgeStyle=orthogonalEdgeStyle;rounded=0;orthogonalLoop=1;jettySize=auto;html=1;entryX=0.5;entryY=0;entryDx=0;entryDy=0;entryPerimeter=0;strokeWidth=2;" edge="1" parent="WIyWlLk6GJQsqaUBKTNV-1" source="sSz4Z6vmgi8B4q0rHPUY-6" target="sSz4Z6vmgi8B4q0rHPUY-7">
          <mxGeometry relative="1" as="geometry" />
        </mxCell>
        <mxCell id="sSz4Z6vmgi8B4q0rHPUY-6" value="Show automation&lt;br&gt;ask feedback" style="rounded=1;whiteSpace=wrap;html=1;absoluteArcSize=1;arcSize=14;strokeWidth=2;shadow=1;" vertex="1" parent="WIyWlLk6GJQsqaUBKTNV-1">
          <mxGeometry x="200" y="310" width="100" height="100" as="geometry" />
        </mxCell>
        <mxCell id="sSz4Z6vmgi8B4q0rHPUY-14" style="edgeStyle=orthogonalEdgeStyle;rounded=0;orthogonalLoop=1;jettySize=auto;html=1;strokeWidth=2;" edge="1" parent="WIyWlLk6GJQsqaUBKTNV-1" target="sSz4Z6vmgi8B4q0rHPUY-13">
          <mxGeometry relative="1" as="geometry">
            <mxPoint x="250" y="560" as="sourcePoint" />
          </mxGeometry>
        </mxCell>
        <mxCell id="sSz4Z6vmgi8B4q0rHPUY-15" value="YES&amp;nbsp;&lt;br&gt;NOT IMPLEMENT" style="edgeLabel;html=1;align=center;verticalAlign=middle;resizable=0;points=[];fontStyle=1" vertex="1" connectable="0" parent="sSz4Z6vmgi8B4q0rHPUY-14">
          <mxGeometry x="-0.2926" y="-1" relative="1" as="geometry">
            <mxPoint as="offset" />
          </mxGeometry>
        </mxCell>
        <mxCell id="sSz4Z6vmgi8B4q0rHPUY-18" style="edgeStyle=orthogonalEdgeStyle;rounded=0;orthogonalLoop=1;jettySize=auto;html=1;strokeWidth=2;" edge="1" parent="WIyWlLk6GJQsqaUBKTNV-1" source="sSz4Z6vmgi8B4q0rHPUY-7" target="sSz4Z6vmgi8B4q0rHPUY-16">
          <mxGeometry relative="1" as="geometry" />
        </mxCell>
        <mxCell id="sSz4Z6vmgi8B4q0rHPUY-20" value="NO" style="edgeLabel;html=1;align=center;verticalAlign=middle;resizable=0;points=[];fontStyle=1" vertex="1" connectable="0" parent="sSz4Z6vmgi8B4q0rHPUY-18">
          <mxGeometry x="-0.7404" y="2" relative="1" as="geometry">
            <mxPoint x="8" y="-2" as="offset" />
          </mxGeometry>
        </mxCell>
        <mxCell id="sSz4Z6vmgi8B4q0rHPUY-19" style="edgeStyle=orthogonalEdgeStyle;rounded=0;orthogonalLoop=1;jettySize=auto;html=1;strokeWidth=2;endArrow=none;endFill=0;" edge="1" parent="WIyWlLk6GJQsqaUBKTNV-1" source="sSz4Z6vmgi8B4q0rHPUY-7">
          <mxGeometry relative="1" as="geometry">
            <mxPoint x="460" y="550" as="targetPoint" />
            <Array as="points">
              <mxPoint x="460" y="510" />
              <mxPoint x="460" y="550" />
            </Array>
          </mxGeometry>
        </mxCell>
        <mxCell id="sSz4Z6vmgi8B4q0rHPUY-21" value="YES" style="edgeLabel;html=1;align=center;verticalAlign=middle;resizable=0;points=[];fontStyle=1" vertex="1" connectable="0" parent="sSz4Z6vmgi8B4q0rHPUY-19">
          <mxGeometry x="-0.6765" relative="1" as="geometry">
            <mxPoint x="-12" as="offset" />
          </mxGeometry>
        </mxCell>
        <mxCell id="sSz4Z6vmgi8B4q0rHPUY-7" value="Automation accepted" style="strokeWidth=2;html=1;shape=mxgraph.flowchart.decision;whiteSpace=wrap;shadow=1;" vertex="1" parent="WIyWlLk6GJQsqaUBKTNV-1">
          <mxGeometry x="200" y="460" width="100" height="100" as="geometry" />
        </mxCell>
        <mxCell id="sSz4Z6vmgi8B4q0rHPUY-24" style="edgeStyle=orthogonalEdgeStyle;rounded=0;orthogonalLoop=1;jettySize=auto;html=1;entryX=0.5;entryY=0;entryDx=0;entryDy=0;entryPerimeter=0;strokeWidth=2;" edge="1" parent="WIyWlLk6GJQsqaUBKTNV-1" source="sSz4Z6vmgi8B4q0rHPUY-13" target="sSz4Z6vmgi8B4q0rHPUY-23">
          <mxGeometry relative="1" as="geometry" />
        </mxCell>
        <mxCell id="sSz4Z6vmgi8B4q0rHPUY-13" value="Flag automation as accepted" style="rounded=1;whiteSpace=wrap;html=1;absoluteArcSize=1;arcSize=14;strokeWidth=2;shadow=1;" vertex="1" parent="WIyWlLk6GJQsqaUBKTNV-1">
          <mxGeometry x="200" y="630" width="100" height="100" as="geometry" />
        </mxCell>
        <mxCell id="sSz4Z6vmgi8B4q0rHPUY-40" style="edgeStyle=orthogonalEdgeStyle;rounded=0;orthogonalLoop=1;jettySize=auto;html=1;entryX=0.166;entryY=0.033;entryDx=0;entryDy=0;entryPerimeter=0;strokeWidth=2;" edge="1" parent="WIyWlLk6GJQsqaUBKTNV-1" source="sSz4Z6vmgi8B4q0rHPUY-16" target="sSz4Z6vmgi8B4q0rHPUY-23">
          <mxGeometry relative="1" as="geometry">
            <Array as="points">
              <mxPoint x="100" y="800" />
              <mxPoint x="227" y="800" />
            </Array>
          </mxGeometry>
        </mxCell>
        <mxCell id="sSz4Z6vmgi8B4q0rHPUY-16" value="Flag automation as not accepted" style="rounded=1;whiteSpace=wrap;html=1;absoluteArcSize=1;arcSize=14;strokeWidth=2;shadow=1;" vertex="1" parent="WIyWlLk6GJQsqaUBKTNV-1">
          <mxGeometry x="50" y="630" width="100" height="100" as="geometry" />
        </mxCell>
        <mxCell id="sSz4Z6vmgi8B4q0rHPUY-23" value="Write in DB" style="strokeWidth=2;html=1;shape=mxgraph.flowchart.database;whiteSpace=wrap;shadow=1;" vertex="1" parent="WIyWlLk6GJQsqaUBKTNV-1">
          <mxGeometry x="215" y="860" width="70" height="60" as="geometry" />
        </mxCell>
        <mxCell id="sSz4Z6vmgi8B4q0rHPUY-38" style="rounded=0;orthogonalLoop=1;jettySize=auto;html=1;endArrow=none;endFill=0;startArrow=classic;startFill=1;strokeWidth=2;" edge="1" parent="WIyWlLk6GJQsqaUBKTNV-1" source="sSz4Z6vmgi8B4q0rHPUY-30">
          <mxGeometry relative="1" as="geometry">
            <mxPoint x="460" y="550" as="targetPoint" />
          </mxGeometry>
        </mxCell>
        <mxCell id="sSz4Z6vmgi8B4q0rHPUY-41" style="edgeStyle=orthogonalEdgeStyle;rounded=0;orthogonalLoop=1;jettySize=auto;html=1;entryX=0.757;entryY=0.033;entryDx=0;entryDy=0;entryPerimeter=0;strokeWidth=2;" edge="1" parent="WIyWlLk6GJQsqaUBKTNV-1" source="sSz4Z6vmgi8B4q0rHPUY-30" target="sSz4Z6vmgi8B4q0rHPUY-23">
          <mxGeometry relative="1" as="geometry">
            <Array as="points">
              <mxPoint x="405" y="800" />
              <mxPoint x="268" y="800" />
            </Array>
          </mxGeometry>
        </mxCell>
        <mxCell id="sSz4Z6vmgi8B4q0rHPUY-30" value="Flag automation as accepted" style="rounded=1;whiteSpace=wrap;html=1;absoluteArcSize=1;arcSize=14;strokeWidth=2;shadow=1;" vertex="1" parent="WIyWlLk6GJQsqaUBKTNV-1">
          <mxGeometry x="355" y="630" width="100" height="100" as="geometry" />
        </mxCell>
        <mxCell id="sSz4Z6vmgi8B4q0rHPUY-39" style="rounded=0;orthogonalLoop=1;jettySize=auto;html=1;strokeWidth=2;startArrow=classic;startFill=1;endArrow=none;endFill=0;" edge="1" parent="WIyWlLk6GJQsqaUBKTNV-1" source="sSz4Z6vmgi8B4q0rHPUY-33">
          <mxGeometry relative="1" as="geometry">
            <mxPoint x="460" y="550" as="targetPoint" />
          </mxGeometry>
        </mxCell>
        <mxCell id="sSz4Z6vmgi8B4q0rHPUY-33" value="Add automation&lt;br&gt;&amp;nbsp;to HA" style="rounded=1;whiteSpace=wrap;html=1;absoluteArcSize=1;arcSize=14;strokeWidth=2;shadow=1;" vertex="1" parent="WIyWlLk6GJQsqaUBKTNV-1">
          <mxGeometry x="470" y="630" width="100" height="100" as="geometry" />
        </mxCell>
        <mxCell id="sSz4Z6vmgi8B4q0rHPUY-35" value="Do nothing" style="strokeWidth=2;html=1;shape=mxgraph.flowchart.terminator;whiteSpace=wrap;shadow=1;" vertex="1" parent="WIyWlLk6GJQsqaUBKTNV-1">
          <mxGeometry x="370" y="180" width="100" height="60" as="geometry" />
        </mxCell>
      </root>
    </mxGraphModel>
  </diagram>
  <diagram id="TLOdHH987ujTQ7OpKTKV" name="Sensors">
    <mxGraphModel dx="836" dy="892" grid="1" gridSize="10" guides="1" tooltips="1" connect="1" arrows="1" fold="1" page="1" pageScale="1" pageWidth="850" pageHeight="1100" math="0" shadow="0">
      <root>
        <mxCell id="0" />
        <mxCell id="1" parent="0" />
        <mxCell id="YkLixDUVAsbQ4rk8m14o-8" style="edgeStyle=orthogonalEdgeStyle;rounded=0;orthogonalLoop=1;jettySize=auto;html=1;entryX=0.5;entryY=0;entryDx=0;entryDy=0;" edge="1" parent="1" source="7eJHmJQ01JZWxqBsFyE6-1" target="YkLixDUVAsbQ4rk8m14o-2">
          <mxGeometry relative="1" as="geometry" />
        </mxCell>
        <mxCell id="7eJHmJQ01JZWxqBsFyE6-1" value="Open Sensor onboarding" style="strokeWidth=2;html=1;shape=mxgraph.flowchart.start_1;whiteSpace=wrap;shadow=1;" vertex="1" parent="1">
          <mxGeometry x="310" y="20" width="100" height="60" as="geometry" />
        </mxCell>
        <mxCell id="YkLixDUVAsbQ4rk8m14o-9" style="edgeStyle=orthogonalEdgeStyle;rounded=0;orthogonalLoop=1;jettySize=auto;html=1;entryX=0.5;entryY=0;entryDx=0;entryDy=0;" edge="1" parent="1" source="YkLixDUVAsbQ4rk8m14o-2" target="YkLixDUVAsbQ4rk8m14o-6">
          <mxGeometry relative="1" as="geometry" />
        </mxCell>
        <mxCell id="YkLixDUVAsbQ4rk8m14o-2" value="Load sensors&amp;nbsp;&lt;br&gt;from HA&lt;br&gt;" style="rounded=1;whiteSpace=wrap;html=1;absoluteArcSize=1;arcSize=14;strokeWidth=2;shadow=1;" vertex="1" parent="1">
          <mxGeometry x="320" y="120" width="80" height="80" as="geometry" />
        </mxCell>
        <mxCell id="YkLixDUVAsbQ4rk8m14o-11" style="edgeStyle=orthogonalEdgeStyle;rounded=0;orthogonalLoop=1;jettySize=auto;html=1;strokeWidth=2;" edge="1" parent="1" source="YkLixDUVAsbQ4rk8m14o-3" target="YkLixDUVAsbQ4rk8m14o-4">
          <mxGeometry relative="1" as="geometry" />
        </mxCell>
        <mxCell id="YkLixDUVAsbQ4rk8m14o-13" value="NO" style="edgeLabel;html=1;align=center;verticalAlign=middle;resizable=0;points=[];fontStyle=1" vertex="1" connectable="0" parent="YkLixDUVAsbQ4rk8m14o-11">
          <mxGeometry x="-0.666" relative="1" as="geometry">
            <mxPoint y="-3" as="offset" />
          </mxGeometry>
        </mxCell>
        <mxCell id="fYU7zf7raMTVvmnGcnWk-2" style="edgeStyle=orthogonalEdgeStyle;rounded=0;orthogonalLoop=1;jettySize=auto;html=1;entryX=1;entryY=0.5;entryDx=0;entryDy=0;strokeWidth=2;" edge="1" parent="1" source="YkLixDUVAsbQ4rk8m14o-3" target="YkLixDUVAsbQ4rk8m14o-16">
          <mxGeometry relative="1" as="geometry" />
        </mxCell>
        <mxCell id="fYU7zf7raMTVvmnGcnWk-5" value="YES" style="edgeLabel;html=1;align=center;verticalAlign=middle;resizable=0;points=[];fontStyle=1" vertex="1" connectable="0" parent="fYU7zf7raMTVvmnGcnWk-2">
          <mxGeometry x="-0.2138" relative="1" as="geometry">
            <mxPoint x="8" as="offset" />
          </mxGeometry>
        </mxCell>
        <mxCell id="YkLixDUVAsbQ4rk8m14o-3" value="Add sensor?" style="strokeWidth=2;html=1;shape=mxgraph.flowchart.decision;whiteSpace=wrap;shadow=1;" vertex="1" parent="1">
          <mxGeometry x="310" y="380" width="100" height="100" as="geometry" />
        </mxCell>
        <mxCell id="YkLixDUVAsbQ4rk8m14o-15" value="NO" style="edgeStyle=orthogonalEdgeStyle;rounded=0;orthogonalLoop=1;jettySize=auto;html=1;entryX=0.5;entryY=0;entryDx=0;entryDy=0;entryPerimeter=0;strokeWidth=2;fontStyle=1" edge="1" parent="1" source="YkLixDUVAsbQ4rk8m14o-4" target="YkLixDUVAsbQ4rk8m14o-14">
          <mxGeometry x="-0.6" relative="1" as="geometry">
            <mxPoint as="offset" />
          </mxGeometry>
        </mxCell>
        <mxCell id="YkLixDUVAsbQ4rk8m14o-4" value="Any sensor&lt;br&gt;left?" style="strokeWidth=2;html=1;shape=mxgraph.flowchart.decision;whiteSpace=wrap;shadow=1;" vertex="1" parent="1">
          <mxGeometry x="310" y="620" width="100" height="100" as="geometry" />
        </mxCell>
        <mxCell id="YkLixDUVAsbQ4rk8m14o-10" style="edgeStyle=orthogonalEdgeStyle;rounded=0;orthogonalLoop=1;jettySize=auto;html=1;entryX=0.5;entryY=0;entryDx=0;entryDy=0;entryPerimeter=0;" edge="1" parent="1" source="YkLixDUVAsbQ4rk8m14o-6" target="YkLixDUVAsbQ4rk8m14o-3">
          <mxGeometry relative="1" as="geometry" />
        </mxCell>
        <mxCell id="YkLixDUVAsbQ4rk8m14o-6" value="Loop through sensors" style="rounded=1;whiteSpace=wrap;html=1;absoluteArcSize=1;arcSize=14;strokeWidth=2;shadow=1;" vertex="1" parent="1">
          <mxGeometry x="320" y="250" width="80" height="80" as="geometry" />
        </mxCell>
        <mxCell id="YkLixDUVAsbQ4rk8m14o-14" value="Back to main page" style="strokeWidth=2;html=1;shape=mxgraph.flowchart.start_1;whiteSpace=wrap;shadow=1;" vertex="1" parent="1">
          <mxGeometry x="310" y="770" width="100" height="60" as="geometry" />
        </mxCell>
        <mxCell id="fYU7zf7raMTVvmnGcnWk-3" style="edgeStyle=orthogonalEdgeStyle;rounded=0;orthogonalLoop=1;jettySize=auto;html=1;" edge="1" parent="1" source="YkLixDUVAsbQ4rk8m14o-16" target="fYU7zf7raMTVvmnGcnWk-1">
          <mxGeometry relative="1" as="geometry" />
        </mxCell>
        <mxCell id="YkLixDUVAsbQ4rk8m14o-16" value="Ask sensor type" style="rounded=1;whiteSpace=wrap;html=1;absoluteArcSize=1;arcSize=14;strokeWidth=2;shadow=1;" vertex="1" parent="1">
          <mxGeometry x="160" y="390" width="80" height="80" as="geometry" />
        </mxCell>
        <mxCell id="fYU7zf7raMTVvmnGcnWk-4" style="edgeStyle=orthogonalEdgeStyle;rounded=0;orthogonalLoop=1;jettySize=auto;html=1;entryX=0;entryY=0.5;entryDx=0;entryDy=0;entryPerimeter=0;strokeWidth=2;" edge="1" parent="1" source="fYU7zf7raMTVvmnGcnWk-1" target="YkLixDUVAsbQ4rk8m14o-4">
          <mxGeometry relative="1" as="geometry">
            <Array as="points">
              <mxPoint x="200" y="670" />
            </Array>
          </mxGeometry>
        </mxCell>
        <mxCell id="fYU7zf7raMTVvmnGcnWk-1" value="Write in DB" style="strokeWidth=2;html=1;shape=mxgraph.flowchart.database;whiteSpace=wrap;shadow=1;" vertex="1" parent="1">
          <mxGeometry x="165" y="550" width="70" height="60" as="geometry" />
        </mxCell>
        <mxCell id="fYU7zf7raMTVvmnGcnWk-10" style="edgeStyle=orthogonalEdgeStyle;rounded=0;orthogonalLoop=1;jettySize=auto;html=1;entryX=0.5;entryY=0;entryDx=0;entryDy=0;strokeWidth=2;" edge="1" parent="1">
          <mxGeometry relative="1" as="geometry">
            <mxPoint x="360" y="80" as="sourcePoint" />
            <mxPoint x="360" y="120" as="targetPoint" />
          </mxGeometry>
        </mxCell>
        <mxCell id="fYU7zf7raMTVvmnGcnWk-11" style="edgeStyle=orthogonalEdgeStyle;rounded=0;orthogonalLoop=1;jettySize=auto;html=1;entryX=0.5;entryY=0;entryDx=0;entryDy=0;strokeWidth=2;" edge="1" parent="1">
          <mxGeometry relative="1" as="geometry">
            <mxPoint x="360" y="200" as="sourcePoint" />
            <mxPoint x="360" y="250" as="targetPoint" />
          </mxGeometry>
        </mxCell>
        <mxCell id="fYU7zf7raMTVvmnGcnWk-12" style="edgeStyle=orthogonalEdgeStyle;rounded=0;orthogonalLoop=1;jettySize=auto;html=1;entryX=1;entryY=0.5;entryDx=0;entryDy=0;strokeWidth=2;" edge="1" parent="1">
          <mxGeometry relative="1" as="geometry">
            <mxPoint x="410" y="670" as="sourcePoint" />
            <mxPoint x="400" y="290" as="targetPoint" />
            <Array as="points">
              <mxPoint x="480" y="670" />
              <mxPoint x="480" y="290" />
            </Array>
          </mxGeometry>
        </mxCell>
        <mxCell id="fYU7zf7raMTVvmnGcnWk-13" value="YES" style="edgeLabel;html=1;align=center;verticalAlign=middle;resizable=0;points=[];fontStyle=1" vertex="1" connectable="0" parent="fYU7zf7raMTVvmnGcnWk-12">
          <mxGeometry x="-0.9322" relative="1" as="geometry">
            <mxPoint as="offset" />
          </mxGeometry>
        </mxCell>
        <mxCell id="fYU7zf7raMTVvmnGcnWk-14" style="edgeStyle=orthogonalEdgeStyle;rounded=0;orthogonalLoop=1;jettySize=auto;html=1;entryX=0.5;entryY=0;entryDx=0;entryDy=0;entryPerimeter=0;strokeWidth=2;" edge="1" parent="1">
          <mxGeometry relative="1" as="geometry">
            <mxPoint x="360" y="330" as="sourcePoint" />
            <mxPoint x="360" y="380" as="targetPoint" />
          </mxGeometry>
        </mxCell>
        <mxCell id="fYU7zf7raMTVvmnGcnWk-15" style="edgeStyle=orthogonalEdgeStyle;rounded=0;orthogonalLoop=1;jettySize=auto;html=1;strokeWidth=2;" edge="1" parent="1">
          <mxGeometry relative="1" as="geometry">
            <mxPoint x="200" y="470" as="sourcePoint" />
            <mxPoint x="200" y="550" as="targetPoint" />
          </mxGeometry>
        </mxCell>
      </root>
    </mxGraphModel>
  </diagram>
  <diagram id="Xk3_u8-xKF_OMoQeYqUT" name="Sensor Seq">
    <mxGraphModel dx="836" dy="892" grid="1" gridSize="10" guides="1" tooltips="1" connect="1" arrows="1" fold="1" page="1" pageScale="1" pageWidth="850" pageHeight="1100" math="0" shadow="0">
      <root>
        <mxCell id="0" />
        <mxCell id="1" parent="0" />
        <mxCell id="NjtgcDEBYl4JHgiTpR9M-1" value="AA" style="whiteSpace=wrap;html=1;aspect=fixed;" vertex="1" parent="1">
          <mxGeometry x="210" y="170" width="80" height="80" as="geometry" />
        </mxCell>
        <mxCell id="NjtgcDEBYl4JHgiTpR9M-2" value="Home assistant" style="whiteSpace=wrap;html=1;aspect=fixed;" vertex="1" parent="1">
          <mxGeometry x="470" y="170" width="80" height="80" as="geometry" />
        </mxCell>
        <mxCell id="NjtgcDEBYl4JHgiTpR9M-4" value="" style="endArrow=none;dashed=1;html=1;rounded=0;entryX=0.5;entryY=1;entryDx=0;entryDy=0;" edge="1" parent="1" source="NjtgcDEBYl4JHgiTpR9M-8" target="NjtgcDEBYl4JHgiTpR9M-1">
          <mxGeometry width="50" height="50" relative="1" as="geometry">
            <mxPoint x="250" y="680" as="sourcePoint" />
            <mxPoint x="260" y="350" as="targetPoint" />
          </mxGeometry>
        </mxCell>
        <mxCell id="NjtgcDEBYl4JHgiTpR9M-5" value="" style="endArrow=none;dashed=1;html=1;rounded=0;entryX=0.5;entryY=1;entryDx=0;entryDy=0;" edge="1" parent="1" source="NjtgcDEBYl4JHgiTpR9M-10">
          <mxGeometry width="50" height="50" relative="1" as="geometry">
            <mxPoint x="509.5" y="680" as="sourcePoint" />
            <mxPoint x="509.5" y="250" as="targetPoint" />
          </mxGeometry>
        </mxCell>
        <mxCell id="NjtgcDEBYl4JHgiTpR9M-6" value="" style="endArrow=classic;html=1;rounded=0;startArrow=oval;startFill=1;" edge="1" parent="1">
          <mxGeometry width="50" height="50" relative="1" as="geometry">
            <mxPoint x="100" y="270" as="sourcePoint" />
            <mxPoint x="250" y="270" as="targetPoint" />
          </mxGeometry>
        </mxCell>
        <mxCell id="NjtgcDEBYl4JHgiTpR9M-7" value="Check sensors" style="edgeLabel;html=1;align=center;verticalAlign=middle;resizable=0;points=[];" vertex="1" connectable="0" parent="NjtgcDEBYl4JHgiTpR9M-6">
          <mxGeometry x="-0.6578" y="1" relative="1" as="geometry">
            <mxPoint x="14" y="-9" as="offset" />
          </mxGeometry>
        </mxCell>
        <mxCell id="NjtgcDEBYl4JHgiTpR9M-9" value="" style="endArrow=none;dashed=1;html=1;rounded=0;entryX=0.5;entryY=1;entryDx=0;entryDy=0;" edge="1" parent="1" target="NjtgcDEBYl4JHgiTpR9M-8">
          <mxGeometry width="50" height="50" relative="1" as="geometry">
            <mxPoint x="250" y="680" as="sourcePoint" />
            <mxPoint x="250" y="250" as="targetPoint" />
          </mxGeometry>
        </mxCell>
        <mxCell id="NjtgcDEBYl4JHgiTpR9M-11" value="" style="endArrow=none;dashed=1;html=1;rounded=0;entryX=0.5;entryY=1;entryDx=0;entryDy=0;" edge="1" parent="1" target="NjtgcDEBYl4JHgiTpR9M-10">
          <mxGeometry width="50" height="50" relative="1" as="geometry">
            <mxPoint x="509.5" y="680" as="sourcePoint" />
            <mxPoint x="509.5" y="250" as="targetPoint" />
          </mxGeometry>
        </mxCell>
        <mxCell id="NjtgcDEBYl4JHgiTpR9M-10" value="" style="rounded=0;whiteSpace=wrap;html=1;" vertex="1" parent="1">
          <mxGeometry x="495" y="320" width="30" height="110" as="geometry" />
        </mxCell>
        <mxCell id="NjtgcDEBYl4JHgiTpR9M-8" value="" style="rounded=0;whiteSpace=wrap;html=1;" vertex="1" parent="1">
          <mxGeometry x="235" y="290" width="30" height="170" as="geometry" />
        </mxCell>
        <mxCell id="NjtgcDEBYl4JHgiTpR9M-12" value="" style="endArrow=classic;html=1;rounded=0;entryX=0;entryY=0;entryDx=0;entryDy=0;" edge="1" parent="1" target="NjtgcDEBYl4JHgiTpR9M-10">
          <mxGeometry width="50" height="50" relative="1" as="geometry">
            <mxPoint x="270" y="320" as="sourcePoint" />
            <mxPoint x="370" y="320" as="targetPoint" />
          </mxGeometry>
        </mxCell>
        <mxCell id="NjtgcDEBYl4JHgiTpR9M-13" value="Get sensors" style="edgeLabel;html=1;align=center;verticalAlign=middle;resizable=0;points=[];" vertex="1" connectable="0" parent="NjtgcDEBYl4JHgiTpR9M-12">
          <mxGeometry x="0.0726" relative="1" as="geometry">
            <mxPoint y="-10" as="offset" />
          </mxGeometry>
        </mxCell>
        <mxCell id="NjtgcDEBYl4JHgiTpR9M-14" value="" style="endArrow=classic;html=1;rounded=0;exitX=0;exitY=1;exitDx=0;exitDy=0;dashed=1;dashPattern=8 8;" edge="1" parent="1" source="NjtgcDEBYl4JHgiTpR9M-10">
          <mxGeometry width="50" height="50" relative="1" as="geometry">
            <mxPoint x="270" y="400" as="sourcePoint" />
            <mxPoint x="270" y="430" as="targetPoint" />
          </mxGeometry>
        </mxCell>
        <mxCell id="NjtgcDEBYl4JHgiTpR9M-15" value="Return sensors" style="edgeLabel;html=1;align=center;verticalAlign=middle;resizable=0;points=[];" vertex="1" connectable="0" parent="NjtgcDEBYl4JHgiTpR9M-14">
          <mxGeometry x="0.0726" relative="1" as="geometry">
            <mxPoint y="-10" as="offset" />
          </mxGeometry>
        </mxCell>
      </root>
    </mxGraphModel>
  </diagram>
</mxfile>
